<svg width="167" height="28" fill="none" xmlns="http://www.w3.org/2000/svg"><path d="m153.431 0 3.046 9.523h9.859l-7.976 5.885 3.047 9.523-7.976-5.885-7.975 5.885 3.046-9.523-7.976-5.885h9.859L153.431 0ZM117.944 0l3.046 9.523h9.858l-7.975 5.885 3.046 9.523-7.975-5.885-7.976 5.885 3.047-9.523-7.976-5.885h9.858L117.944 0ZM82.456 0l3.047 9.523h9.858l-7.975 5.885 3.046 9.523-7.976-5.885-7.975 5.885 3.046-9.523-7.975-5.885h9.858L82.456 0ZM49.056 0l3.046 9.523h9.859l-7.976 5.885 3.047 9.523-7.976-5.885-7.975 5.885 3.046-9.523-7.976-5.885h9.859L49.056 0ZM13.569 0l3.046 9.523h9.858l-7.975 5.885 3.046 9.523-7.975-5.885-7.976 5.885 3.047-9.523L.664 9.523h9.858L13.57 0Z" fill="#BDBEC2" fill-opacity=".7"/></svg>