<svg width="26" height="24" fill="none" xmlns="http://www.w3.org/2000/svg"><path d="M4.194 12h17.612" stroke="#48494D" stroke-width="1.5"/><path d="M4.194 12h17.612" stroke="#48494D" stroke-width="1.5" stroke-miterlimit="10" stroke-linecap="round" stroke-linejoin="round"/><path d="M13 6.53v10.94" stroke="#48494D" stroke-width="1.5"/><path d="M13 6.53v10.94" stroke="#48494D" stroke-width="1.5" stroke-miterlimit="10" stroke-linecap="round" stroke-linejoin="round"/><path d="M21.806 6.53V12" stroke="#48494D" stroke-width="1.5"/><path d="M21.806 6.53V12" stroke="#48494D" stroke-width="1.5" stroke-miterlimit="10" stroke-linecap="round" stroke-linejoin="round"/><path d="M4.194 6.53V17.47" stroke="#48494D" stroke-width="1.5"/><path d="M4.194 6.53V17.47M4.194 6.53a2.686 2.686 0 1 0 0-5.373 2.686 2.686 0 0 0 0 5.372ZM13 6.53a2.686 2.686 0 1 0 0-5.373 2.686 2.686 0 0 0 0 5.372ZM21.806 6.53a2.686 2.686 0 1 0 0-5.373 2.686 2.686 0 0 0 0 5.372ZM4.194 22.843a2.686 2.686 0 1 0 0-5.373 2.686 2.686 0 0 0 0 5.373ZM13 22.843a2.686 2.686 0 1 0 0-5.373 2.686 2.686 0 0 0 0 5.373Z" stroke="#48494D" stroke-width="1.5" stroke-miterlimit="10" stroke-linecap="round" stroke-linejoin="round"/></svg>